<svg width="99" height="94" viewBox="0 0 99 94" fill="none" xmlns="http://www.w3.org/2000/svg">
<path d="M58.0707 32.5948L87.3598 19.7092L67.9121 44.5268L67.533 45.0106L68.0838 45.2833L96.6898 59.4492L64.5698 60.1696L63.9678 60.1831L64.0917 60.7723L70.5221 91.3496L49.8788 67.39L49.5 66.9503L49.1212 67.39L28.4779 91.3496L34.9083 60.7723L35.0322 60.1831L34.4302 60.1696L2.3102 59.4492L30.9162 45.2833L31.467 45.0106L31.0879 44.5268L11.6402 19.7092L40.9293 32.5948L41.4666 32.8312L41.6146 32.2632L49.5 1.98398L57.3854 32.2632L57.5334 32.8312L58.0707 32.5948Z" fill="#FCF6E8" stroke="#F09497"/>
</svg>
